Coordinates
version=1
nRows=8
nColumns=40
inDegrees=yes

Units are S.I. units (second, meters, Newtons, ...)
Angles are in degrees.

endheader
time	pelvis_tilt	pelvis_list	pelvis_rotation	pelvis_tx	pelvis_ty	pelvis_tz	hip_flexion_r	hip_adduction_r	hip_rotation_r	knee_angle_r	knee_angle_r_beta	ankle_angle_r	subtalar_angle_r	mtp_angle_r	hip_flexion_l	hip_adduction_l	hip_rotation_l	knee_angle_l	knee_angle_l_beta	ankle_angle_l	subtalar_angle_l	mtp_angle_l	lumbar_extension	lumbar_bending	lumbar_rotation	arm_flex_r	arm_add_r	arm_rot_r	elbow_flex_r	pro_sup_r	wrist_flex_r	wrist_dev_r	arm_flex_l	arm_add_l	arm_rot_l	elbow_flex_l	pro_sup_l	wrist_flex_l	wrist_dev_l
     46.50864286	     -3.23903466	     -5.31394473	      7.43375864	      1.02571375	      0.92474920	      0.49459660	      0.28024737	      3.65800784	    -20.10448567	      9.97031066	      9.97031066	     14.35722653	      2.75744522	     -6.52233999	     28.42175454	     -8.66357033	     -2.50288577	     21.19316644	     21.19316644	      3.99646711	     -6.76483926	      4.97547581	     -9.20682101	      6.71339545	      3.80474299	     35.93076268	    -19.62659388	     -6.37820907	     84.47764488	     44.80894944	      0.00000000	      0.00000000	     -4.38999710	     -7.96136189	     -7.70788739	     27.48676919	     46.37684536	      0.00000000	      0.00000000
     46.52228571	     -3.23288548	     -5.49512592	      7.29887035	      1.02695705	      0.92382064	      0.49242007	     -0.27389946	      3.78022488	    -19.94429698	      9.80665568	      9.80665568	     14.67662895	      2.95391256	     -6.26074834	     28.06138972	     -8.65499465	     -1.97092509	     22.05196091	     22.05196091	      3.95730587	     -7.74407370	      4.84052255	     -8.94398760	      6.73421537	      3.96968000	     35.20231498	    -19.65343096	     -6.55297942	     84.11976059	     44.82984744	      0.00000000	      0.00000000	     -4.23787164	     -8.09703832	     -7.91622918	     27.95089344	     46.40937994	      0.00000000	      0.00000000
     46.53592857	     -3.19270884	     -5.46064380	      7.11604144	      1.02817993	      0.92324676	      0.49005425	     -0.74210911	      3.59706818	    -19.73644308	      9.93770993	      9.93770993	     14.97011699	      2.95907120	     -6.19827406	     27.55266839	     -8.51250712	     -1.86607308	     22.64180926	     22.64180926	      4.07303936	     -8.20200066	      4.70167780	     -8.78471369	      6.56147909	      3.93284604	     34.33802506	    -19.38224832	     -6.46422947	     83.82861512	     44.83489146	      0.00000000	      0.00000000	     -4.05540789	     -8.28609720	     -8.00432398	     28.14700481	     46.42539181	      0.00000000	      0.00000000
     46.54957143	     -3.16638847	     -5.43568593	      6.95033102	      1.02931652	      0.92283246	      0.48758915	     -1.15012331	      3.40170998	    -19.49900951	     10.13239619	     10.13239619	     15.22900203	      2.94222886	     -6.15192580	     27.13680069	     -8.36722644	     -1.68319523	     23.19054288	     23.19054288	      4.34319723	     -8.63312670	      4.51180856	     -8.66544149	      6.37062227	      3.85225126	     33.43893399	    -19.13180144	     -6.35109324	     83.47851335	     44.84008810	      0.00000000	      0.00000000	     -3.76670405	     -8.43578538	     -8.06414896	     28.35145773	     46.43894458	      0.00000000	      0.00000000
     46.56321429	     -3.24558256	     -5.36044379	      6.77748838	      1.03007432	      0.92249479	      0.48478637	     -1.11867167	      3.00871916	    -19.15922997	     10.95943526	     10.95943526	     15.77221886	      2.53893453	     -5.31156170	     26.91916159	     -8.03233919	     -1.14875686	     23.70628974	     23.70628974	      4.40239987	     -9.88680656	      4.35726880	     -8.42441547	      6.12802681	      4.15156801	     32.30867528	    -19.31656580	     -6.57892889	     82.44748936	     44.88601714	      0.00000000	      0.00000000	     -3.35355207	     -8.53568270	     -8.35896332	     29.01296465	     46.48514846	      0.00000000	      0.00000000
     46.57685714	     -3.14117214	     -5.27597468	      6.64421489	      1.03097055	      0.92268486	      0.48188873	     -1.46107722	      2.67457896	    -18.96968383	     11.41138914	     11.41138914	     15.91502871	      2.41086191	     -5.16350887	     26.52535828	     -7.82586656	     -1.02763357	     24.18364575	     24.18364575	      4.83575405	    -10.28127326	      4.10277720	     -8.47937320	      5.92541041	      3.93964933	     31.22700668	    -18.98930939	     -6.39597779	     81.97864114	     44.89248660	      0.00000000	      0.00000000	     -2.95267736	     -8.67501371	     -8.41031844	     29.20389188	     46.49846680	      0.00000000	      0.00000000
     46.59050000	     -3.21811398	     -5.11146894	      6.45918621	      1.03137921	      0.92279151	      0.47877096	     -1.09498809	      2.04624496	    -18.61637561	     12.84659950	     12.84659950	     16.41004779	      1.83274280	     -4.60845604	     26.30578583	     -7.45085644	     -0.81343201	     24.53360132	     24.53360132	      5.13514948	    -11.05582885	      3.94172069	     -8.35742901	      5.62958656	      4.10766701	     30.09990840	    -19.13513605	     -6.27467913	     80.72324286	     44.93180776	      0.00000000	      0.00000000	     -2.31611634	     -8.72458619	     -8.53968584	     29.56219236	     46.52332781	      0.00000000	      0.00000000
     46.60414286	     -3.02094878	     -5.09327928	      6.38071329	      1.03203243	      0.92353479	      0.47548631	     -1.35514678	      1.70959586	    -18.46442934	     13.57585409	     13.57585409	     16.36316711	      1.63446014	     -4.52202240	     25.83045843	     -7.29009842	     -0.70317741	     24.87833400	     24.87833400	      5.65510538	    -11.37498997	      3.71108888	     -8.54283417	      5.56879095	      3.82623249	     28.85675806	    -18.75959195	     -6.00441236	     80.12197771	     44.93838103	      0.00000000	      0.00000000	     -1.79129498	     -8.80033369	     -8.54993880	     29.75646214	     46.53242079	      0.00000000	      0.00000000
